Simulation
nRows=20
nColumns=15
endheader
time  TH_x TH_y TH_z SC_y  SC_z  SC_x  AC_y  AC_z  AC_x  GH_y  GH_z  GH_yy  EL_x  PS_y
5.745  0.000000  0.000000  0.000000  -50.16743816370348  19.254555568768094  34.57348485482609  72.25577718819535  -6.521768085727322  25.76392171723305  -7.219221662114464  59.78746069404888  -15.027546242541748  18.382457715577303  120.000000
5.80245  0.000000  0.000000  0.000000  -48.875166342357595  18.076634547015185  30.570278051069213  72.60820135711138  -6.36589514030159  25.891778169842933  -7.578474231277356  59.485980292917795  -14.330528800624705  18.67837042713049  120.000000
5.8599  0.000000  0.000000  0.000000  -47.3834862728809  16.465868869367693  25.791309781851176  72.87838725019718  -6.175351840138112  26.08839622616945  -8.163578136408752  59.054673286852015  -13.063745401606507  19.066997461150603  120.000000
5.91735  0.000000  0.000000  0.000000  -45.81583926918268  14.391571689794354  20.471019332703335  72.94880398816832  -6.004559893991622  26.310704541917033  -8.966470445766493  58.553665651102875  -11.193562539094188  19.462788419344168  120.000000
5.9748  0.000000  0.000000  0.000000  -44.30122524669317  11.864360462422376  14.884034749988047  72.71369934500339  -5.92260554340704  26.4951262749924  -9.929532318750294  58.052513981396885  -8.761277291280503  19.766326647097895  120.000000
6.03225  0.000000  0.000000  0.000000  -42.93197605840043  8.937008367989678  9.325843394451498  72.10194636949781  -6.000310933111904  26.565235246755446  -10.971975219929282  57.59971059780149  -5.892596752120797  19.89303531263212  120.000000
6.089700000000001  0.000000  0.000000  0.000000  -41.72149271584757  5.7088338648802575  4.088757043395373  71.0927662981889  -6.29689572720379  26.439627859006013  -12.040503595025701  57.18164581704197  -2.7733156307544613  19.793442348617017  120.000000
6.14715  0.000000  0.000000  0.000000  -40.578783149035864  2.3337304501996403  -0.5394944464996191  69.71392397308111  -6.845939376636186  26.04566049881576  -13.150944946912775  56.6953173008871  0.39857950078043186  19.450386127332113  120.000000
6.2046  0.000000  0.000000  0.000000  -39.35373748741138  -0.9593220294671003  -4.28689773240897  68.04510797455465  -7.6421110971179  25.33762213229344  -14.335750487672506  55.96178130989682  3.4434441122426453  18.87112397669527  120.000000
6.26205  0.000000  0.000000  0.000000  -37.98582817389266  -3.8764150893052487  -6.937836039431473  66.21488272959121  -8.63678283435392  24.312782773470815  -15.502980506472685  54.77378977898433  6.195082060430379  18.10442988092318  120.000000
6.3195  0.000000  0.000000  0.000000  -36.631808709644744  -6.123455819577821  -8.403856182516588  64.38563284104504  -9.75831924164528  23.00513053015884  -16.376192254266197  52.97348364388832  8.503825640489103  17.2633677112371  120.000000
6.37695  0.000000  0.000000  0.000000  -35.53865852060654  -7.516497422917529  -8.733558230827155  62.69800936272797  -10.940713260835789  21.44822799068099  -16.680168654406877  50.502241913711586  10.294168002617896  16.48121762193509  120.000000
6.4344  0.000000  0.000000  0.000000  -34.820761671454875  -8.024364866836423  -8.042748076702242  61.217708326811184  -12.16408746560123  19.697261104152094  -16.359993377723242  47.41503452359976  11.608711938919075  15.832572801046654  120.000000
6.49185  0.000000  0.000000  0.000000  -34.432516126454935  -7.746105712559826  -6.520920875071807  59.929858571062205  -13.382528915292168  17.80321532106891  -15.503755955039075  43.82069501364499  12.541174636802763  15.342825583885112  120.000000
6.549300000000001  0.000000  0.000000  0.000000  -34.292696497490404  -6.912670937817258  -4.473450525871583  58.7636106052246  -14.380907778029831  15.750775525584865  -14.127692502157023  39.79013140244857  13.107898806287924  15.049285404174185  120.000000
6.60675  0.000000  0.000000  0.000000  -34.30989401695639  -5.7812573146213815  -2.2654060688231414  57.65201088333799  -14.889775583279606  13.544501553449875  -12.135805535525016  35.38873744803324  13.207558097364357  14.981719789367233  120.000000
6.6642  0.000000  0.000000  0.000000  -34.39213335620967  -4.541906206760069  -0.23214687573215936  56.548750325881144  -14.755417122129986  11.285016805988644  -9.388089056582155  30.747973404976495  12.66883800996243  15.133545985476538  120.000000
6.72165  0.000000  0.000000  0.000000  -34.52760872457926  -3.311428816652775  1.3554680690697989  55.428690832578354  -13.952793702577877  9.133305409634083  -5.66008374428145  26.07412409721889  11.236622077265586  15.476576050468058  120.000000
6.7791  0.000000  0.000000  0.000000  -34.76050730742651  -2.1826489377230756  2.313940964574395  54.27979882206461  -12.54152577511941  7.225282908179449  -0.6273323669204062  21.621350869127742  8.563287900156078  15.952594647451617  120.000000
6.83655  0.000000  0.000000  0.000000  -35.1167332465186  -1.2469008889678372  2.5663516129966406  53.09570760449405  -10.6160845033615  5.631561426880022  6.044287838827633  17.63339714308458  4.28496195903952  16.472012509397825  120.000000
